<svg viewBox="0 0 1024 1024" xmlns="http://www.w3.org/2000/svg">
  <path d="M896 192H128c-35.2 0-64 28.8-64 64v512c0 35.2 28.8 64 64 64h768c35.2 0 64-28.8 64-64V256c0-35.2-28.8-64-64-64zm0 576H128V256h768v512z" fill="#e6e6e6"/>
  <path d="M281.6 454.4L384 352 281.6 249.6c-12.8-12.8-12.8-32 0-44.8 12.8-12.8 32-12.8 44.8 0l128 128c12.8 12.8 12.8 32 0 44.8l-128 128c-6.4 6.4-12.8 9.6-22.4 9.6-9.6 0-16-3.2-22.4-9.6-12.8-12.8-12.8-32 0-44.8zM448 640h256c19.2 0 32 12.8 32 32s-12.8 32-32 32H448c-19.2 0-32-12.8-32-32s12.8-32 32-32z" fill="#e6e6e6"/>
</svg> 