<?xml version="1.0" encoding="UTF-8"?>
<svg id="ot-file-manager" class="ruyi-icon ruyi-icon-ot-file-manager" xmlns="http://www.w3.org/2000/svg" width="16" height="16" viewBox="0 0 16 16">
  <g fill="none">
    <g clip-path="url(#clip0_92_214)">
      <mask id="mask0_92_214" maskUnits="userSpaceOnUse" x="0" y="0" width="16" height="16" style="mask-type: luminance;">
        <path d="M16 0H0V16H16V0Z" fill="white"></path>
      </mask>
      <g mask="url(#mask0_92_214)">
        <mask id="mask1_92_214" maskUnits="userSpaceOnUse" x="0" y="0" width="16" height="16" style="mask-type: luminance;">
          <path d="M16 0H0V16H16V0Z" fill="white"></path>
        </mask>
        <g mask="url(#mask1_92_214)">
          <g opacity="0.9">
            <path d="M1.03159 0.449707C0.461856 0.449707 0 0.911566 0 1.48129V13.7078C0 14.2775 0.461856 14.7394 1.03159 14.7394H2.2V13.7394H1.03159C1.01414 13.7394 1 13.7252 1 13.7078V1.48129C1 1.46385 1.01414 1.44971 1.03159 1.44971H5.60875L7.52637 3.36733C7.66002 3.50097 7.84128 3.57605 8.03028 3.57605H14.6095C14.627 3.57605 14.6411 3.59019 14.6411 3.60764V9.5H15.6411V3.60764C15.6411 3.03791 15.1793 2.57605 14.6095 2.57605H8.14931L6.23169 0.658433C6.09805 0.524788 5.91679 0.449707 5.72778 0.449707H1.03159Z" fill="#ffffff" fill-opacity="0.9"></path>
            <path d="M5.46207 13.9067C5.55495 13.9841 5.60139 14.0847 5.60139 14.2086C5.60139 14.3711 5.53753 14.493 5.40983 14.5743C5.28599 14.6517 5.10604 14.6904 4.86997 14.6904C4.76935 14.6904 4.67067 14.6826 4.57392 14.6672C4.48104 14.6517 4.39203 14.6323 4.30689 14.6091C4.22175 14.5859 4.14436 14.5607 4.0747 14.5337C4.00891 14.5066 3.95473 14.4814 3.91216 14.4582L3.65674 15.1374C3.76123 15.1915 3.92377 15.2457 4.14436 15.2999C4.36494 15.3541 4.62036 15.3812 4.9106 15.3812C5.13119 15.3812 5.33243 15.356 5.51431 15.3057C5.70007 15.2554 5.8568 15.178 5.98451 15.0735C6.11609 14.969 6.21671 14.8394 6.28637 14.6846C6.3599 14.5259 6.39666 14.3382 6.39666 14.1215C6.39666 13.9048 6.35022 13.7248 6.25734 13.5817C6.16833 13.4346 6.05417 13.3127 5.91485 13.2159C5.77941 13.1153 5.63041 13.0302 5.46788 12.9605C5.30921 12.8909 5.16021 12.8231 5.0209 12.7574C4.88545 12.6916 4.77129 12.62 4.67841 12.5426C4.5894 12.4652 4.54489 12.3684 4.54489 12.2523C4.54489 12.1285 4.59327 12.0298 4.69002 11.9563C4.79064 11.8827 4.93382 11.846 5.11958 11.846C5.31695 11.846 5.50077 11.8692 5.67105 11.9156C5.84132 11.9582 5.96903 12.0066 6.05417 12.0608L6.30378 11.3932C6.16833 11.3158 5.99612 11.2578 5.78715 11.2191C5.57817 11.1765 5.35565 11.1552 5.11958 11.1552C4.91447 11.1552 4.72872 11.1784 4.56231 11.2249C4.3959 11.2713 4.25078 11.3429 4.12694 11.4396C4.00697 11.5364 3.91409 11.6583 3.8483 11.8053C3.78252 11.9485 3.74962 12.1188 3.74962 12.3162C3.74962 12.5445 3.79413 12.7322 3.88313 12.8793C3.97601 13.0263 4.09018 13.1502 4.22562 13.2508C4.36494 13.3475 4.51393 13.4307 4.6726 13.5004C4.83514 13.5662 4.98413 13.632 5.11958 13.6977C5.2589 13.7597 5.37306 13.8293 5.46207 13.9067Z" fill="#ffffff" fill-opacity="0.9"></path>
            <path d="M9.33554 11.2365H6.92651V15.2999H7.72178V13.6571H9.20784V12.9489H7.72178V11.9447H9.33554V11.2365Z" fill="#ffffff" fill-opacity="0.9"></path>
            <path d="M11.5751 11.9447H12.7593V11.2365H9.58984V11.9447H10.7799V15.2999H11.5751V11.9447Z" fill="#ffffff" fill-opacity="0.9"></path>
            <path d="M13.7076 11.2073C13.5141 11.2228 13.3361 11.246 13.1736 11.277V15.2998H13.9688V13.9008C13.9882 13.9047 14.0192 13.9086 14.0617 13.9124L14.201 13.924H14.4274C14.6287 13.924 14.8222 13.8989 15.0079 13.8486C15.1975 13.7983 15.3659 13.717 15.5129 13.6048C15.66 13.4925 15.778 13.3494 15.867 13.1752C15.9561 12.9972 16.0006 12.7805 16.0006 12.5251C16.0006 12.2426 15.9483 12.0142 15.8438 11.8401C15.7432 11.6621 15.6116 11.5247 15.4491 11.4279C15.2866 11.3273 15.1027 11.2615 14.8976 11.2306C14.6964 11.1957 14.4952 11.1783 14.2939 11.1783C14.1004 11.1783 13.905 11.188 13.7076 11.2073ZM14.1372 11.8749C14.2068 11.8672 14.2804 11.8633 14.3578 11.8633C14.4584 11.8633 14.5571 11.873 14.6538 11.8923C14.7506 11.9117 14.8357 11.9465 14.9092 11.9968C14.9866 12.0471 15.0486 12.1148 15.095 12.2C15.1414 12.2812 15.1647 12.3857 15.1647 12.5134C15.1647 12.6644 15.1395 12.7863 15.0892 12.8792C15.0428 12.972 14.9789 13.0456 14.8976 13.0997C14.8164 13.1501 14.7235 13.1849 14.619 13.2042C14.5184 13.2236 14.4158 13.2333 14.3113 13.2333H14.1372C14.1024 13.2294 14.0695 13.2255 14.0385 13.2216C14.0075 13.2178 13.9843 13.2139 13.9688 13.21V11.8923C14.0114 11.8846 14.0675 11.8788 14.1372 11.8749Z" fill="#ffffff" fill-rule="evenodd" clip-rule="evenodd" fill-opacity="0.9"></path>
          </g>
        </g>
      </g>
    </g>
    <defs>
      <clipPath id="clip0_92_214">
        <rect width="16" height="16" fill="white"></rect>
      </clipPath>
    </defs>
  </g>
</svg> 