<svg viewBox="0 0 1024 1024" xmlns="http://www.w3.org/2000/svg">
  <path d="M916.784 391.275H914.416c-37.874-7.101-66.28-28.406-87.585-63.913-18.937-33.14-23.672-71.015-11.836-106.522 7.102-14.203 2.367-33.14-11.835-47.343-40.242-37.875-89.952-66.28-144.397-85.218-14.203-7.101-33.14-2.367-47.343 11.836-23.672 28.406-59.179 44.976-99.42 44.976-35.508 0-71.015-16.57-99.421-44.976-16.57-16.57-33.14-14.203-47.343-11.836-56.812 23.672-101.788 49.71-142.03 85.218-14.202 9.469-21.304 28.406-14.202 44.976 11.836 40.242 7.101 78.116-11.836 111.256-16.57 30.773-47.343 54.445-87.585 63.913-2.367 0-2.367 0-4.734 2.367-11.836 7.102-21.304 16.57-26.039 30.773v2.367c-7.101 30.773-9.468 59.18-9.468 85.218 0 28.406 2.367 59.179 9.468 85.218 2.367 16.57 11.836 30.773 30.773 37.874h2.367c37.875 7.102 66.28 28.406 87.585 63.913 18.937 33.14 23.672 71.015 11.836 106.522-7.102 14.203-2.367 33.14 11.836 47.343 40.241 37.875 89.952 66.28 144.396 87.585 2.367 0 4.734 2.367 7.102 2.367h4.734c11.836 0 23.672-4.734 33.14-14.203 23.672-28.406 59.179-44.976 99.42-44.976 35.508 0 71.015 16.57 99.421 44.976 9.469 9.469 21.304 14.203 30.773 14.203 4.734 0 11.836 0 16.57-2.367 56.812-23.672 101.788-49.71 142.03-85.218 14.202-9.468 21.304-28.406 14.202-44.976-11.836-40.242-7.101-78.116 11.836-111.256 16.57-30.773 47.343-54.445 87.585-63.913 2.367 0 2.367 0 4.734-2.367 11.836-7.102 21.304-16.57 26.039-30.773v-2.367c7.101-30.773 9.468-59.18 9.468-85.218 0-28.406-2.367-59.179-9.468-85.218 2.367-21.304-9.469-35.507-28.406-40.242z m-14.203 196.474h0c-52.077 16.57-92.32 47.343-113.623 87.585-23.672 42.609-30.773 92.32-16.57 144.396-35.508 30.773-75.75 54.445-125.46 73.382-40.241-37.874-87.584-56.812-134.927-56.812-52.078 0-99.421 21.304-132.561 59.18-47.343-16.57-89.952-42.609-123.092-73.382 14.203-49.71 9.469-101.788-16.57-144.397-26.039-47.343-66.28-75.749-113.623-87.585-4.734-23.671-7.102-52.077-7.102-75.749s2.367-47.343 7.102-75.749c0 0 0-2.367 2.367-2.367 49.71-14.203 89.952-44.976 113.623-85.218 23.672-42.609 30.773-92.32 16.57-144.396 35.508-30.773 75.75-54.445 125.46-73.382 37.874 37.875 85.217 59.18 132.56 59.18 52.078 0 101.788-21.305 132.561-59.18 47.343 16.57 89.952 42.609 123.092 73.382-14.203 49.71-9.469 101.788 16.57 144.396 26.039 47.343 66.28 75.75 113.623 87.585 4.734 23.672 7.102 52.078 7.102 75.749 0 21.304-2.367 44.976-7.102 73.382z" fill="#e6e6e6"/>
  <path d="M644.56 443.352c-11.836 4.734-18.937 16.57-14.203 30.773 9.47 26.04 7.102 52.078 0 78.116-21.304 63.913-89.952 97.054-153.865 75.75-63.913-21.305-97.053-89.953-75.749-153.866 21.304-63.913 89.952-97.053 153.865-75.749 11.836 4.734 26.039-2.367 30.773-14.203s-2.367-26.038-14.203-30.773c-87.584-30.773-184.638 16.57-215.411 104.155-30.773 87.585 16.57 184.638 104.155 215.41 18.937 7.103 37.874 9.47 54.445 9.47 71.014 0 134.927-44.977 158.599-113.624 11.836-35.507 11.836-73.382 0-108.89-4.734-11.835-16.57-18.936-28.406-16.57z" fill="currentColor"/>
</svg>