<svg viewBox="0 0 1024 1024" xmlns="http://www.w3.org/2000/svg">
  <path d="M574.275 449.726c-12.288-12.288-32.183-12.288-44.472 0-12.288 12.288-12.288 32.183 0 44.471 53.94 53.94 53.94 141.524 0 195.463L353.61 865.848c-53.94 53.94-141.524 53.94-195.464 0-53.94-53.94-53.94-141.524 0-195.463l82.903-82.905c12.288-12.287 12.288-32.183 0-44.47-12.288-12.288-32.183-12.288-44.471 0l-82.905 82.904c-78.573 78.516-78.573 206.222 0 284.795 78.517 78.517 206.222 78.517 284.797 0l176.191-176.19c78.517-78.516 78.517-206.222 0-284.795z" fill="currentColor"/>
  <path d="M833.83 190.168c-78.517-78.517-206.222-78.517-284.795 0L372.844 366.359c-78.517 78.517-78.517 206.222 0 284.797 12.288 12.288 32.183 12.288 44.47 0 12.288-12.288 12.288-32.183 0-44.471-53.94-53.94-53.94-141.525 0-195.464l176.192-176.18c53.94-53.94 141.524-53.94 195.463 0 53.94 53.94 53.94 141.526 0 195.464l-82.905 82.904c-12.288 12.288-12.288 32.183 0 44.471 6.144 6.144 14.222 9.215 22.3 9.215 8.02 0 16.098-3.071 22.242-9.215l82.904-82.905c78.744-78.573 78.744-206.222 0.23-284.739z" fill="currentColor"/>
</svg>