<svg xmlns="http://www.w3.org/2000/svg" width="16" height="16" viewBox="0 0 16 16">
  <path fill="#ffffff" d="M1.25 3A1.75 1.75 0 013 1.25h10A1.75 1.75 0 0114.75 3v10A1.75 1.75 0 0113 14.75H3A1.75 1.75 0 011.25 13V3zM3 2.75c-.138 0-.25.112-.25.25v10c0 .138.112.25.25.25h10c.138 0 .25-.112.25-.25V3a.25.25 0 00-.25-.25H3z" fill-rule="evenodd" clip-rule="evenodd"></path>
  <path fill="#ffffff" d="M4.47 4.97a.75.75 0 011.06 0l2.5 2.5a.75.75 0 010 1.06l-2.5 2.5a.75.75 0 01-1.06-1.06L6.44 8 4.47 6.03a.75.75 0 010-1.06zM8.75 11a.75.75 0 000 1.5h2.5a.75.75 0 000-1.5h-2.5z"></path>
</svg> 