<?xml version="1.0" encoding="UTF-8"?>
<svg id="ot-network-icon" class="ruyi-icon ruyi-icon-ot-network-icon" xmlns="http://www.w3.org/2000/svg" width="16" height="16" viewBox="0 0 16 16">
  <path fill="currentColor" d="M7.937 15a7 7 0 11.127-14 7 7 0 01-.127 14ZM6.56 2.174a6.004 6.004 0 00-4.54 5.328h3.531c.037-1.634.25-3.12.587-4.24.121-.404.261-.772.422-1.088Zm2.87-.002c.162.316.303.686.424 1.09.336 1.12.55 2.606.586 4.24h3.54a6.004 6.004 0 00-4.55-5.33Zm.01 5.33c-.036-1.558-.24-2.942-.544-3.953-.169-.562-.36-.98-.549-1.248-.198-.28-.324-.3-.351-.3-.027 0-.153.02-.351.3-.19.267-.38.686-.549 1.248-.303 1.01-.508 2.395-.544 3.953H9.44Zm-2.888 1H9.44c-.036 1.557-.24 2.941-.544 3.952-.169.563-.36.981-.549 1.248-.174.246-.292.291-.337.299h-.027c-.045-.008-.163-.054-.337-.3-.19-.266-.38-.684-.549-1.247-.303-1.01-.508-2.395-.544-3.952Zm-1 0H2.02a6.005 6.005 0 004.539 5.325c-.16-.316-.3-.683-.42-1.085-.337-1.122-.551-2.607-.588-4.24Zm3.88 5.326a6.004 6.004 0 004.547-5.326H10.44c-.036 1.633-.25 3.118-.586 4.24-.121.402-.261.77-.422 1.086Z" fill-rule="evenodd" clip-rule="evenodd"></path>
</svg> 